<?xml version="1.0" encoding="UTF-8"?>
<svg id="uuid-176b221e-a64c-42ce-9b1d-c861469f818c" data-name="Layer 2" xmlns="http://www.w3.org/2000/svg" viewBox="0 0 793.1 368.6">
  <defs>
    <style>
      .uuid-938bf4b9-526a-4274-9684-648944f38c83 {
        fill: #f7633d;
      }
    </style>
  </defs>
  <g id="uuid-c06037b4-81ba-4316-9298-c0a9035b4971" data-name="Layer 1">
    <path class="uuid-938bf4b9-526a-4274-9684-648944f38c83" d="M0,290.4c19.6-13.2,39.5-26.1,57.3-41.7-1-3.9-2.6-7.6-3.7-11.5-10.5-34.6-9.3-71.2-.4-106,13-50.5,59.7-106.5,108.8-125.4,14.8-5.7,30-9.5,44.5-.4,27.8,17.3,14.3,66.6,6,91.9-18,55-51.1,110.6-90.9,152.6-1,1.1-8,7.6-7.9,8.1,7.9,12.8,17.3,24.8,28.5,34.9,16,14.4,35.6,26.7,57.1,31,55,11,101.4-31.9,129.9-73.5,12-17.4,22.1-36.3,29.8-56.1,0-.4-3.6-1.8-4.4-2.2-30.5-16.8-39.7-64.4-16.5-90.8,18.5-21,54.4-25.4,73.7-3.2,4.7,5.4,5.7,9.4,8.3,15.7.1.3,0,.6.5.5s.9-.5,1.2-.9c10.2-13.4,19.2-27.9,29.9-41,8.9-10.8,21.4-25.8,37.1-18.3,13.5,6.4,10.7,20.3,8,32.2-7.7,34.4-20.7,75-6.4,109.5,10.6,25.7,47.1,25.9,70.3,22.3,18.7-2.9,38.9-8.1,56.8-14,8.3-2.7,16.4-6.3,24.7-9,.6-3.6.4-7.3.9-10.9,6.3-50,70.6-78.9,115.9-75.2,17.1,1.4,36.9,10.8,33.6,31.2-3.3,20.4-35.2,38.2-52,47.1-19,10.1-38.7,18.8-58.7,26.9-.5.5-.2,1.1,0,1.7,1.1,4.1,6,12.3,8.3,16.2,2.2,3.7,4.9,7,6.8,10.9l-28.7,16.8c-.6,0-3.8-4.8-4.4-5.6-2.3-3.3-4.6-7.1-6.6-10.6-3-5.3-6-10.7-7.8-16.6-11.4,2.4-21.9,7.5-33.1,10.5-32.9,8.6-66.5,17.1-100.8,11.4-36.8-6.1-60.1-30-65.2-67-1.2-9-2-19.5-1.4-28.5.4-6.7,2.6-15.2,2.1-21.7,0-.3.1-.9-.4-.7s-3.3,3.7-3.9,4.5c-8.7,11.3-13.7,23.6-20.1,36.2-16.2,31.6-34.4,62.6-55.4,91.2-35.8,48.8-87.4,101.7-151.9,105.1l-.6.3h-2.6c-.3-.4-1-.3-1.5-.3-2.6,0-5.2,0-7.8,0-37.4-1-76.2-24.5-102.8-49.5-9.5-8.9-17.6-19.5-25.3-30-.3,0-.6.2-.9.4-4.7,3-10,8.1-14.6,11.6-11.8,9-24,17.5-36.3,25.9-4.7,3.2-11.2,8.3-16,10.7-.3.1-.5.4-.9.3L0,291.2v-.8ZM175.8,47c-20.3,9.5-37.7,26.2-51.1,43.9-23.2,30.7-33.6,66.9-31.1,105.5.3,4.9,1.3,9.8,1.8,14.7.4,0,.5-.1.8-.4,3.9-4.1,8.2-9.9,11.7-14.4,28.3-36.7,55.7-87.8,65.3-133.4,1.1-5.2,1.9-10.5,2.5-15.9ZM396.5,109.1c-5.9,3-11.1,8.1-15.5,12.9-10.3,11.3-18.3,26.9-17,42.7,0,1.2,1.1,6.7,2.2,7,.4.1.5-.4.7-.6,7.5-11.6,15.1-26.8,21.1-39.5,3.4-7.2,6.9-14.8,8.5-22.6ZM753.4,140.3c-2.5-.2-5.1-.2-7.5,0-20.9,1.8-46.1,12-59.3,28.7-2.5,3.2-5.7,7.3-5.8,11.5.2.2,2.3-1.3,2.6-1.4,14-7,28.2-12.1,42.2-19.9,9.7-5.4,19.6-11.4,27.8-18.8Z"/>
  </g>
</svg>